<svg id="Layer_3" data-name="Layer 3" xmlns="http://www.w3.org/2000/svg" viewBox="0 0 70.48 70"><defs><style>.cls-1{fill:#f2f2f2;}.cls-2{fill:#174057;}.cls-3{fill:#2e7fad;}</style></defs><title>block-logos_mini</title><g id="Rubiks_Cube" data-name="Rubiks Cube"><g id="Right"><path class="cls-1" d="M20.47,24c1.78.63,3.43,1.2,5.07,1.79,1.47.52,2.93,1.06,4.4,1.59,1,.39,1.28.71,1.28,1.85,0,2.54,0,5.09,0,7.63,0,1.33,0,2.65,0,4a5,5,0,0,1-.06.57c-.22,0-.4-.07-.58-.13-3-1.06-6-2.13-9.06-3.18a1.34,1.34,0,0,1-1-1.3c0-.86-.08-1.71-.09-2.56,0-3.08,0-6.16,0-9.24C20.41,24.66,20.44,24.37,20.47,24Z" transform="translate(-8.7 -5.97)"/><path class="cls-2" d="M32.44,28.31c1.05.36,2,.66,2.94,1,2.21.79,4.4,1.64,6.62,2.38a1.53,1.53,0,0,1,1.17,1.56c0,4,0,8.08,0,12.11a1.28,1.28,0,0,1-.07.26c-.2,0-.4-.08-.59-.14Q38.14,44,33.78,42.54c-1.07-.36-1.33-.75-1.34-1.88,0-3.78,0-7.56-.07-11.34C32.37,29,32.41,28.7,32.44,28.31Z" transform="translate(-8.7 -5.97)"/><path class="cls-1" d="M32.51,43.47a5.11,5.11,0,0,1,.64.17q4.43,1.57,8.85,3.18a1.61,1.61,0,0,1,1.19,1.69q0,5.64.07,11.28c0,.31,0,.63-.08,1-.25-.07-.46-.11-.65-.17L35,58c-2.18-.78-2.55-1.29-2.57-3.62,0-3.39,0-6.79,0-10.19C32.46,44,32.49,43.79,32.51,43.47Z" transform="translate(-8.7 -5.97)"/><path class="cls-1" d="M43.18,76l-.88-.28c-2-.67-3.94-1.32-5.9-2-1.07-.38-2.13-.78-3.15-1.26a1.68,1.68,0,0,1-.65-.87,3,3,0,0,1-.12-1c0-3.76,0-7.53,0-11.29,0-.21,0-.41,0-.71.46.14.84.25,1.22.38,2.87,1,5.73,2.07,8.61,3.06a1.1,1.1,0,0,1,.86,1.24c0,3.93,0,7.87,0,11.8Z" transform="translate(-8.7 -5.97)"/><path class="cls-1" d="M31.18,56.49c-.33-.09-.6-.14-.85-.23L21.77,53.2c-1-.35-1.21-.68-1.21-1.71q0-5.85,0-11.72c0-.19,0-.38,0-.63a2.93,2.93,0,0,1,.52.11c2.89,1,5.77,2.11,8.67,3.14a1.82,1.82,0,0,1,1.38,1.94c0,3.84.05,7.69.08,11.53C31.23,56,31.2,56.23,31.18,56.49Z" transform="translate(-8.7 -5.97)"/><path class="cls-1" d="M20.52,54.19c1.22.43,2.27.78,3.31,1.16,2.08.75,4.16,1.53,6.26,2.27a1.45,1.45,0,0,1,1.12,1.45q0,6.12,0,12.25a2.44,2.44,0,0,1-.06.27c-.2,0-.4-.07-.59-.13-3-1-6-2.06-8.91-3.2a2.35,2.35,0,0,1-1-1.45,7.58,7.58,0,0,1-.13-2c0-3.21,0-6.41,0-9.62Z" transform="translate(-8.7 -5.97)"/><path class="cls-1" d="M19.06,67.31l-4.88-1.77L9.91,64a1.51,1.51,0,0,1-1.2-1.72c0-3.87,0-7.74,0-11.61v-.75c.31.09.55.15.78.23,2.82,1,5.64,2.09,8.46,3.12a1.52,1.52,0,0,1,1.11,1.48c.05,4.07.06,8.13.08,12.19A2.64,2.64,0,0,1,19.06,67.31Z" transform="translate(-8.7 -5.97)"/><path class="cls-1" d="M8.78,34.7l2.92,1c2.08.78,4.15,1.59,6.23,2.36A1.5,1.5,0,0,1,19,39.6c0,4.08,0,8.16,0,12.24a2,2,0,0,1-.08.25,5.69,5.69,0,0,1-.59-.16c-2.4-.84-4.79-1.67-7.17-2.53-.5-.17-1-.41-1.47-.63a1.71,1.71,0,0,1-1-1.65c0-4,0-8.08,0-12.11A1.92,1.92,0,0,1,8.78,34.7Z" transform="translate(-8.7 -5.97)"/><path class="cls-1" d="M19.09,37a3.41,3.41,0,0,1-.55-.1L9.38,33.59a.71.71,0,0,1-.57-.79c0-4.14,0-8.29,0-12.44a4.83,4.83,0,0,1,.06-.57l.7.2,8.25,3c1,.39,1.23.65,1.24,1.75,0,3.78.05,7.57.07,11.35C19.14,36.36,19.11,36.63,19.09,37Z" transform="translate(-8.7 -5.97)"/></g><g id="Top"><path class="cls-3" d="M54.1,18.49l-2.92,1.07C49.11,20.3,47,21,45,21.78a2.9,2.9,0,0,1-2.11,0c-2.75-1-5.51-2-8.27-3l-1-.41a7.7,7.7,0,0,1,.71-.32C37.2,17,40.15,16,43.13,15a2.49,2.49,0,0,1,1.48,0c3.07,1.05,6.13,2.16,9.19,3.25l.28.14Z" transform="translate(-8.7 -5.97)"/><path class="cls-1" d="M54.16,27.24l-.58.28c-3,1.06-5.91,2.14-8.88,3.16a2.45,2.45,0,0,1-1.49.05c-3-1-6-2.13-9-3.21-.16-.06-.32-.15-.64-.3.79-.29,1.41-.54,2-.76,2.5-.89,5-1.79,7.5-2.63a2.53,2.53,0,0,1,1.49,0C47.68,24.84,50.73,26,53.79,27Z" transform="translate(-8.7 -5.97)"/><path class="cls-3" d="M21.44,22.74c3.18-1.11,6.18-2.14,9.17-3.22a3.26,3.26,0,0,1,2.36,0c2.74,1,5.51,2,8.27,2.93l.93.35a4.86,4.86,0,0,1-.61.29c-2.86,1-5.72,2-8.57,3.05a3.12,3.12,0,0,1-2.25,0c-2.87-1-5.75-2.06-8.62-3.09C21.93,23,21.75,22.88,21.44,22.74Z" transform="translate(-8.7 -5.97)"/><path class="cls-3" d="M66.28,22.8c-.88.34-1.61.62-2.34.88-2.23.81-4.47,1.59-6.7,2.41a3.53,3.53,0,0,1-2.5,0L46.1,23.05a5.46,5.46,0,0,1-.51-.25c.63-.24,1.14-.44,1.65-.62,2.71-.94,5.41-1.89,8.13-2.8a2.15,2.15,0,0,1,1.28,0c3,1,6,2.08,9,3.12C65.79,22.57,66,22.66,66.28,22.8Z" transform="translate(-8.7 -5.97)"/><path class="cls-3" d="M42.37,14.11l-1.45.54c-2.7.95-5.39,1.93-8.11,2.84a2.73,2.73,0,0,1-1.6,0c-2.91-1-5.8-2-8.69-3.08-.2-.07-.38-.15-.75-.31.94-.36,1.7-.67,2.47-.95,2.25-.81,4.51-1.59,6.76-2.41a2.9,2.9,0,0,1,2.07,0L42,13.87A3,3,0,0,1,42.37,14.11Z" transform="translate(-8.7 -5.97)"/><path class="cls-3" d="M66.24,14c-.51.21-.89.38-1.28.52-2.64.93-5.29,1.84-7.92,2.78a3.09,3.09,0,0,1-2.12,0c-2.84-1-5.68-2-8.52-3-.24-.08-.47-.18-.87-.35l1.95-.72c2.38-.84,4.76-1.66,7.13-2.52a3.48,3.48,0,0,1,2.54,0c2.81,1,5.63,2,8.44,3C65.77,13.79,65.93,13.87,66.24,14Z" transform="translate(-8.7 -5.97)"/><path class="cls-3" d="M57.79,18.35c1.35-.49,2.52-.93,3.7-1.35,1.85-.67,3.69-1.35,5.56-1.95A2.65,2.65,0,0,1,68.6,15c3.16,1,6.31,2.13,9.46,3.22a2.32,2.32,0,0,1,.38.21c-.27.12-.45.22-.63.28-3.09,1.06-6.18,2.12-9.28,3.15a1.87,1.87,0,0,1-1.12,0c-3-1.06-6.08-2.15-9.12-3.24A4.62,4.62,0,0,1,57.79,18.35Z" transform="translate(-8.7 -5.97)"/><path class="cls-3" d="M54.2,9.58c-.8.3-1.49.58-2.19.82-2.52.87-5,1.75-7.58,2.57a2.26,2.26,0,0,1-1.36,0c-2.94-1-5.85-2-8.77-3.07-.1,0-.18-.11-.36-.21.26-.13.44-.23.63-.31,2.85-1.1,5.7-2.22,8.56-3.28a2.19,2.19,0,0,1,1.36-.07c3.15,1.08,6.28,2.21,9.42,3.33A1.63,1.63,0,0,1,54.2,9.58Z" transform="translate(-8.7 -5.97)"/><path class="cls-3" d="M30,18.4c-.29.14-.45.23-.61.29-3,1.06-6,2.13-8.95,3.16a1.8,1.8,0,0,1-1.17,0c-3.05-1.06-6.08-2.16-9.12-3.26a3,3,0,0,1-.38-.2c.25-.12.4-.21.56-.27,3-1.06,5.91-2.12,8.88-3.15a1.76,1.76,0,0,1,1.11-.05c3.11,1.07,6.2,2.18,9.31,3.27Z" transform="translate(-8.7 -5.97)"/></g><g id="Left"><path class="cls-2" d="M67.41,23.92l-5.07,1.79-4.4,1.6c-1,.38-1.28.7-1.29,1.84,0,2.55,0,5.09,0,7.64v4c0,.17,0,.33.06.57a5.13,5.13,0,0,0,.58-.13c3-1.06,6-2.13,9.07-3.17a1.37,1.37,0,0,0,1-1.31c0-.85.08-1.71.08-2.56q0-4.62,0-9.24C67.47,24.63,67.43,24.34,67.41,23.92Z" transform="translate(-8.7 -5.97)"/><path class="cls-3" d="M55.64,28.41c-1.06.34-2,.62-3,.93-2.23.74-4.44,1.53-6.68,2.22a1.55,1.55,0,0,0-1.2,1.53c-.13,4-.21,8.08-.31,12.12a1.09,1.09,0,0,0,.07.25,5.6,5.6,0,0,0,.59-.12c2.94-.91,5.88-1.81,8.81-2.73,1.08-.34,1.35-.72,1.38-1.85q.18-5.67.35-11.34C55.7,29.11,55.66,28.8,55.64,28.41Z" transform="translate(-8.7 -5.97)"/><path class="cls-2" d="M55.36,43.44c-.28.08-.46.11-.63.17l-8.85,3.18a1.6,1.6,0,0,0-1.19,1.69c0,3.76-.06,7.52-.07,11.28a10.12,10.12,0,0,0,.08,1,5.81,5.81,0,0,0,.64-.17c2.5-.87,5-1.73,7.49-2.62,2.19-.77,2.56-1.29,2.57-3.61,0-3.4,0-6.8,0-10.19C55.42,44,55.39,43.77,55.36,43.44Z" transform="translate(-8.7 -5.97)"/><path class="cls-2" d="M44.7,76l.88-.29c2-.67,3.94-1.32,5.9-2,1.06-.37,2.12-.78,3.14-1.25a1.64,1.64,0,0,0,.65-.88,2.6,2.6,0,0,0,.12-1c0-3.76,0-7.52,0-11.29,0-.2,0-.41,0-.71-.47.15-.85.25-1.22.38-2.87,1-5.73,2.07-8.61,3.06a1.09,1.09,0,0,0-.86,1.24c0,3.94,0,7.87,0,11.8Z" transform="translate(-8.7 -5.97)"/><path class="cls-2" d="M56.7,56.46a8.43,8.43,0,0,0,.85-.23q4.28-1.51,8.55-3.06c1-.34,1.22-.68,1.22-1.7,0-3.91,0-7.82,0-11.73,0-.19,0-.37,0-.63a4.42,4.42,0,0,0-.53.11c-2.88,1.05-5.76,2.11-8.66,3.14a1.85,1.85,0,0,0-1.39,1.94c0,3.85,0,7.69-.08,11.53C56.64,56,56.68,56.2,56.7,56.46Z" transform="translate(-8.7 -5.97)"/><path class="cls-2" d="M67.36,54.16l-3.31,1.16c-2.09.75-4.17,1.53-6.26,2.27a1.46,1.46,0,0,0-1.13,1.46q0,6.12,0,12.24a1.5,1.5,0,0,0,.07.27,4.93,4.93,0,0,0,.58-.13c3-1.05,6-2.06,8.92-3.2a2.35,2.35,0,0,0,1-1.44,7.28,7.28,0,0,0,.13-2c0-3.2,0-6.41,0-9.62Z" transform="translate(-8.7 -5.97)"/><path class="cls-2" d="M68.81,67.28l4.89-1.77L78,63.93a1.5,1.5,0,0,0,1.2-1.72c0-3.87,0-7.74,0-11.61v-.74c-.32.09-.56.14-.78.22-2.82,1-5.64,2.09-8.46,3.12a1.52,1.52,0,0,0-1.11,1.49c0,4.06-.06,8.12-.09,12.18C68.74,67,68.78,67.08,68.81,67.28Z" transform="translate(-8.7 -5.97)"/><path class="cls-2" d="M79.1,34.68c-1,.36-2,.69-2.93,1C74.1,36.51,72,37.32,70,38.08a1.52,1.52,0,0,0-1.1,1.49c0,4.08,0,8.16,0,12.24a.83.83,0,0,0,.08.25c.2-.05.4-.09.59-.15l7.17-2.53c.5-.18,1-.41,1.46-.63a1.72,1.72,0,0,0,1-1.66c0-4,0-8.07,0-12.11A2.46,2.46,0,0,0,79.1,34.68Z" transform="translate(-8.7 -5.97)"/><path class="cls-2" d="M68.78,36.93a3,3,0,0,0,.55-.11l9.17-3.26a.72.72,0,0,0,.57-.78c0-4.15,0-8.3,0-12.45,0-.16,0-.33,0-.57-.27.08-.49.13-.71.21q-4.12,1.49-8.24,3c-1,.38-1.23.64-1.24,1.74q0,5.68-.07,11.35C68.73,36.34,68.76,36.61,68.78,36.93Z" transform="translate(-8.7 -5.97)"/></g></g></svg>