<svg id="Layer_3" data-name="Layer 3" xmlns="http://www.w3.org/2000/svg" viewBox="0 0 374.39 70.59"><defs><style>.cls-1{fill:#f2f2f2;}.cls-2{fill:#174057;}.cls-3{fill:#2e7fad;}</style></defs><title>block-logo</title><g id="Logo"><path d="M142.9,53.84a11.18,11.18,0,0,1-.71,4,12.27,12.27,0,0,1-1.93,3.4A15.15,15.15,0,0,1,137.39,64a17.93,17.93,0,0,1-3.51,2A20.17,20.17,0,0,1,130,67.18a19.71,19.71,0,0,1-3.93.4H96.28V35.41A18.45,18.45,0,0,1,114.74,17h8.75a29.24,29.24,0,0,1,3.76.26,24.88,24.88,0,0,1,3.85.83,18.8,18.8,0,0,1,3.59,1.47,12.38,12.38,0,0,1,3,2.24,10.18,10.18,0,0,1,2,3,9.62,9.62,0,0,1,.76,3.94,8.64,8.64,0,0,1-.84,3.83,10.78,10.78,0,0,1-2.27,3.07A16,16,0,0,1,134.09,38a27.45,27.45,0,0,1-3.88,1.81,25.6,25.6,0,0,1,4.86,1.87,16,16,0,0,1,4.05,2.85,12.5,12.5,0,0,1,2.76,4A12.9,12.9,0,0,1,142.9,53.84ZM126.3,30q0-4.29-2.26-6.26a9.59,9.59,0,0,0-6.46-2h-7.34V38.16h6.15a14.26,14.26,0,0,0,3.69-.48,9.48,9.48,0,0,0,3.18-1.47,7.38,7.38,0,0,0,2.22-2.55A7.73,7.73,0,0,0,126.3,30Zm2.46,23a14,14,0,0,0-.52-3.89,8.79,8.79,0,0,0-1.62-3.13,7.73,7.73,0,0,0-2.73-2.07,9.13,9.13,0,0,0-3.84-.76h-9.81V62.66h8.57a11,11,0,0,0,4-.7A9.55,9.55,0,0,0,126,60,8.79,8.79,0,0,0,128,56.93,10.36,10.36,0,0,0,128.76,53Z" transform="translate(-8.45 -5.72)"/><path d="M195.1,67.52H158.75V16.89H172.7v44.2h22.4Z" transform="translate(-8.45 -5.72)"/><path d="M259.22,42.28a25.58,25.58,0,0,1-2.11,10.55,22.89,22.89,0,0,1-5.84,8,26,26,0,0,1-8.82,5,35.7,35.7,0,0,1-22.08,0,26,26,0,0,1-8.82-5,22.89,22.89,0,0,1-5.84-8,25.42,25.42,0,0,1-2.11-10.55,26,26,0,0,1,2.09-10.66,22.84,22.84,0,0,1,5.8-7.95,25.7,25.7,0,0,1,8.81-5,36.34,36.34,0,0,1,22.22,0,25.7,25.7,0,0,1,8.81,5,22.84,22.84,0,0,1,5.8,8A26,26,0,0,1,259.22,42.28Zm-14.21,0c0-1.49-.07-3-.21-4.55a27.77,27.77,0,0,0-.77-4.51,19.77,19.77,0,0,0-1.53-4.11A11.82,11.82,0,0,0,240,25.76a10.94,10.94,0,0,0-3.64-2.26,13.7,13.7,0,0,0-5-.82,14,14,0,0,0-5,.82,11.22,11.22,0,0,0-3.66,2.24,11.85,11.85,0,0,0-2.46,3.33,20.4,20.4,0,0,0-1.49,4.1,29.47,29.47,0,0,0-.76,4.51c-.14,1.56-.21,3.09-.21,4.6s.07,3,.21,4.54a27.47,27.47,0,0,0,.78,4.5,19.81,19.81,0,0,0,1.53,4.09,11.82,11.82,0,0,0,2.48,3.35A11.08,11.08,0,0,0,226.43,61a13.32,13.32,0,0,0,5,.85,12.65,12.65,0,0,0,4.85-.86,11.3,11.3,0,0,0,3.59-2.33,13.15,13.15,0,0,0,2.51-3.4,19.76,19.76,0,0,0,1.58-4.11,29.52,29.52,0,0,0,.83-4.46A42.71,42.71,0,0,0,245,42.28Z" transform="translate(-8.45 -5.72)"/><path d="M321.09,30.12l-6,2.42a16.15,16.15,0,0,0-1.88-4,12.48,12.48,0,0,0-6.52-5.14,13.76,13.76,0,0,0-13.3,2.37,16.08,16.08,0,0,0-3.05,3.37,22.9,22.9,0,0,0-2.18,4.09,23.2,23.2,0,0,0-1.3,4.5,25.51,25.51,0,0,0-.42,4.55,29.53,29.53,0,0,0,.86,7,19.47,19.47,0,0,0,2.75,6.3,14.46,14.46,0,0,0,4.86,4.53,14.2,14.2,0,0,0,7.25,1.74,12.25,12.25,0,0,0,4.25-.73,13.22,13.22,0,0,0,3.64-2,14.45,14.45,0,0,0,2.86-3,15.72,15.72,0,0,0,2-3.71L321,54.8a18,18,0,0,1-3.66,5.61,20.86,20.86,0,0,1-5.29,4,25.89,25.89,0,0,1-6.37,2.38,30.4,30.4,0,0,1-6.83.79,28.55,28.55,0,0,1-7.16-.88,27.13,27.13,0,0,1-6.38-2.49,25.59,25.59,0,0,1-5.36-3.91,24.4,24.4,0,0,1-6.75-11.16,25.73,25.73,0,0,1,0-13.71,24.41,24.41,0,0,1,2.64-6.09,24,24,0,0,1,4.11-5.1,25.59,25.59,0,0,1,5.36-3.91,27.13,27.13,0,0,1,6.38-2.49A28.55,28.55,0,0,1,298.8,17a30.33,30.33,0,0,1,7,.81,24.88,24.88,0,0,1,6.38,2.44,21.17,21.17,0,0,1,5.26,4.11A18.7,18.7,0,0,1,321.09,30.12Z" transform="translate(-8.45 -5.72)"/><path d="M350.39,67.6h-14V17h14V41.1a97.29,97.29,0,0,0,12.07-11,70.25,70.25,0,0,0,9.65-13.15h9.53a77.36,77.36,0,0,1-8.54,11.89,92.09,92.09,0,0,1-10.48,10.23L382.84,67.6H368.28L353.06,46.09l-1.32.88q-.64.42-1.35.84Z" transform="translate(-8.45 -5.72)"/></g><g id="Rubiks_Cube" data-name="Rubiks Cube"><g id="Right"><path d="M30.93,41.44l-.38-.1-3.18-1.11-5.88-2.06a1.48,1.48,0,0,1-1.12-1.42c0-.85-.08-1.71-.08-2.56q0-4.35,0-8.68V25c0-.19,0-.39,0-.62l0-.56,1.63.58,3.6,1.27L30,27.21c1.11.41,1.36.78,1.37,2q0,3.21,0,6.41v1.22c0,1.33,0,2.65,0,4,0,.11,0,.23,0,.36l0,.36Z" transform="translate(-8.45 -5.72)"/><path class="cls-1" d="M20.47,24c1.78.63,3.43,1.2,5.07,1.79,1.47.52,2.93,1.06,4.4,1.59,1,.39,1.28.71,1.28,1.85,0,2.54,0,5.09,0,7.63,0,1.33,0,2.65,0,4a5,5,0,0,1-.06.57c-.22,0-.4-.07-.58-.13-3-1.06-6-2.13-9.06-3.18a1.34,1.34,0,0,1-1-1.3c0-.86-.08-1.71-.09-2.56,0-3.08,0-6.16,0-9.24,0-.29,0-.58.06-1m-.23-.35,0,.33q0,.21,0,.39c0,.24,0,.43,0,.63v.55c0,2.89,0,5.79,0,8.69,0,.87.05,1.73.09,2.57a1.61,1.61,0,0,0,1.2,1.53l5.92,2.07,3.14,1.1.4.1.21,0,.27.06,0-.28,0-.21a2.64,2.64,0,0,0,0-.38c0-1.33,0-2.65,0-4v-1c0-2.22,0-4.43,0-6.65A1.77,1.77,0,0,0,30,27.1l-4.39-1.6-3.46-1.22-1.62-.57-.31-.11Z" transform="translate(-8.45 -5.72)"/><path class="cls-2" d="M42.89,45.7l-.41-.1c-2.92-1-5.83-2-8.74-2.94a1.72,1.72,0,0,1-1.42-2s-.06-8.64-.07-11.34a3.83,3.83,0,0,1,0-.66l0-.52,1.12.38c.68.22,1.33.44,2,.67l2.24.82c1.43.53,2.91,1.07,4.38,1.56a1.66,1.66,0,0,1,1.25,1.68c0,3.13,0,6.25,0,9.38v2.73a.58.58,0,0,1,0,.18l-.08.23Z" transform="translate(-8.45 -5.72)"/><path class="cls-1" d="M32.44,28.31c1.05.36,2,.66,2.94,1,2.21.79,4.4,1.64,6.62,2.38a1.53,1.53,0,0,1,1.17,1.56c0,4,0,8.08,0,12.11a1.28,1.28,0,0,1-.07.26c-.2,0-.4-.08-.59-.14Q38.14,44,33.78,42.54c-1.07-.36-1.33-.75-1.34-1.88,0-3.78,0-7.56-.07-11.34,0-.31,0-.62.07-1M32.22,28l0,.32q0,.2,0,.36c0,.24,0,.45,0,.67,0,2.73,0,5.47.05,8.2l0,3.14a1.85,1.85,0,0,0,1.51,2.12l8.46,2.85.28.09.43.11.18,0,.23.06.06-.22,0-.12a.51.51,0,0,0,0-.22v-2.7c0-3.09,0-6.27,0-9.41a1.8,1.8,0,0,0-1.34-1.8c-1.47-.49-2.95-1-4.38-1.56-.75-.27-1.49-.55-2.24-.81l-2-.68-1-.33-.3-.1Z" transform="translate(-8.45 -5.72)"/><path d="M42.91,60.87l-.42-.11-1.67-.59-5.82-2c-2.24-.8-2.64-1.36-2.65-3.74,0-2.62,0-5.25,0-7.88V44.21c0-.14,0-.28,0-.46l0-.44.39.1a2.83,2.83,0,0,1,.4.11l.18.06L42,46.7a1.72,1.72,0,0,1,1.27,1.81c0,3.76.06,7.52.07,11.28a5.33,5.33,0,0,1,0,.67l-.05.51Z" transform="translate(-8.45 -5.72)"/><path class="cls-1" d="M32.51,43.47a5.11,5.11,0,0,1,.64.17q4.43,1.57,8.85,3.18a1.61,1.61,0,0,1,1.19,1.69q0,5.64.07,11.28c0,.31,0,.63-.08,1-.25-.07-.46-.11-.65-.17L35,58c-2.18-.78-2.55-1.29-2.57-3.62,0-3.39,0-6.79,0-10.19,0-.21,0-.42,0-.74m-.22-.31,0,.29a2.66,2.66,0,0,1,0,.3,3.93,3.93,0,0,0,0,.46v2.38q0,3.9,0,7.82c0,2.42.45,3,2.74,3.84,1.95.7,3.92,1.38,5.88,2.06l1.61.56a3.75,3.75,0,0,0,.43.12l.24.06.28.07,0-.29q0-.19,0-.36a5.45,5.45,0,0,0,0-.68q0-5.64-.07-11.28a1.86,1.86,0,0,0-1.35-1.93L33.23,43.4l-.4-.11-.26-.06-.28-.07Z" transform="translate(-8.45 -5.72)"/><path d="M42.26,75.8l-1.69-.57c-1.41-.47-2.81-.94-4.22-1.44S34.09,73,33.2,72.54a1.78,1.78,0,0,1-.71-.94,2.63,2.63,0,0,1-.13-1c0-3.82,0-7.59,0-11.35,0-.14,0-.28,0-.44l0-.44.56.18.81.25,2.62.94c2,.72,4,1.43,6,2.12a1.21,1.21,0,0,1,.94,1.36c0,2.94,0,5.89,0,8.83v4.1Z" transform="translate(-8.45 -5.72)"/><path class="cls-1" d="M32.51,58.54c.46.14.84.25,1.22.38,2.87,1,5.73,2.07,8.61,3.06a1.1,1.1,0,0,1,.86,1.24c0,3.93,0,7.87,0,11.8v1l-.88-.28c-2-.67-3.94-1.32-5.9-2-1.07-.38-2.13-.78-3.15-1.26a1.68,1.68,0,0,1-.65-.87,3,3,0,0,1-.12-1c0-3.76,0-7.53,0-11.29,0-.21,0-.41,0-.71m-.23-.34,0,.32,0,.28c0,.17,0,.31,0,.45,0,3.76,0,7.53,0,11.29v.06a2.87,2.87,0,0,0,.14,1,1.82,1.82,0,0,0,.78,1c.89.41,1.89.81,3.16,1.26s2.82,1,4.23,1.45l1.68.56.51.17.37.12.33.11V72c0-2.89,0-5.88,0-8.81a1.34,1.34,0,0,0-1-1.48c-2-.68-4-1.41-6-2.11l-2.65-.94L33,58.43l-.43-.13-.31-.1Z" transform="translate(-8.45 -5.72)"/><path d="M30.84,56.53c-.2-.05-.38-.09-.55-.15l-8.56-3.06a1.6,1.6,0,0,1-1.3-1.82l0-10.37V39.77a2.91,2.91,0,0,1,0-.4l0-.39.34.07a1.54,1.54,0,0,1,.34.08l2.94,1.07c1.91.7,3.81,1.39,5.73,2.07a2,2,0,0,1,1.47,2.06q0,4,0,7.94l0,3.59c0,.12,0,.25,0,.4l0,.39Z" transform="translate(-8.45 -5.72)"/><path class="cls-1" d="M20.58,39.14a2.93,2.93,0,0,1,.52.11c2.89,1,5.77,2.11,8.67,3.14a1.82,1.82,0,0,1,1.38,1.94c0,3.84.05,7.69.08,11.53,0,.18,0,.37-.05.63-.33-.09-.6-.14-.85-.23L21.77,53.2c-1-.35-1.21-.68-1.21-1.71q0-5.85,0-11.72c0-.19,0-.38,0-.63m-.23-.31,0,.28,0,.24a3.19,3.19,0,0,0,0,.42v.95q0,5.39,0,10.78a1.69,1.69,0,0,0,1.38,1.93l8.55,3.07c.18.06.36.1.57.15l.3.08.29.08,0-.3,0-.24a3,3,0,0,0,0-.41l0-3.57c0-2.61-.05-5.31-.05-8a2.09,2.09,0,0,0-1.55-2.18c-1.94-.68-3.87-1.39-5.79-2.09L21.19,39a1.85,1.85,0,0,0-.37-.08l-.19,0-.28-.06Z" transform="translate(-8.45 -5.72)"/><path d="M31,71.67a1.89,1.89,0,0,1-.41-.1l-2-.69c-2.29-.8-4.65-1.62-6.94-2.51a2.48,2.48,0,0,1-1.08-1.52,6.08,6.08,0,0,1-.14-1.66v-.41c0-2.39,0-4.77,0-7.16V54l1.37.48,2.11.74,2.42.88c1.28.47,2.56.94,3.84,1.39a1.57,1.57,0,0,1,1.21,1.57c0,3.48,0,7,0,10.45v1.8a.53.53,0,0,1,0,.17l-.06.25Z" transform="translate(-8.45 -5.72)"/><path class="cls-1" d="M20.52,54.19c1.22.43,2.27.78,3.31,1.16,2.08.75,4.16,1.53,6.26,2.27a1.45,1.45,0,0,1,1.12,1.45q0,6.12,0,12.25a2.44,2.44,0,0,1-.06.27c-.2,0-.4-.07-.59-.13-3-1-6-2.06-8.91-3.2a2.35,2.35,0,0,1-1-1.45,7.58,7.58,0,0,1-.13-2c0-3.21,0-6.41,0-9.62v-1m-.25-.36v3.84q0,3.55,0,7.11v.41a5.7,5.7,0,0,0,.14,1.7,2.59,2.59,0,0,0,1.16,1.6c2.28.88,4.63,1.7,6.91,2.5l2,.7a3.39,3.39,0,0,0,.43.11l.18,0,.24,0,.06-.23a1,1,0,0,1,0-.12.78.78,0,0,0,0-.21V69.46c0-3.46,0-6.93,0-10.39a1.7,1.7,0,0,0-1.29-1.69L26.36,56l-2.45-.89-2.18-.76L20.6,54l-.33-.12Z" transform="translate(-8.45 -5.72)"/><path d="M14.14,65.65,9.87,64.08a1.63,1.63,0,0,1-1.28-1.84l0-12.52.45.12.5.15,3,1.1,5.49,2a1.65,1.65,0,0,1,1.19,1.6q.06,4.89.07,9.78l0,2.41a1.29,1.29,0,0,1,0,.25l-.06.32Z" transform="translate(-8.45 -5.72)"/><path class="cls-1" d="M8.7,49.88c.31.09.55.15.78.23,2.82,1,5.64,2.09,8.46,3.12a1.52,1.52,0,0,1,1.11,1.48c.05,4.07.06,8.13.08,12.19a2.64,2.64,0,0,1-.07.41l-4.88-1.77L9.91,64a1.51,1.51,0,0,1-1.2-1.72c0-3.87,0-7.74,0-11.61v-.75m-.25-.33v4.18c0,2.84,0,5.67,0,8.51a1.76,1.76,0,0,0,1.37,2l4.26,1.57L17.45,67l1.53.55.28.1,0-.29q0-.1,0-.18a.88.88,0,0,0,0-.27V64.45c0-3.24,0-6.49-.07-9.74A1.79,1.79,0,0,0,18,53c-1.83-.66-3.66-1.34-5.48-2l-3-1.11-.51-.15-.29-.08-.32-.09Z" transform="translate(-8.45 -5.72)"/><path d="M18.75,52.16a3.25,3.25,0,0,1-.42-.11l-.39-.14c-2.26-.79-4.52-1.58-6.78-2.39A12.4,12.4,0,0,1,9.91,49l-.22-.09A1.85,1.85,0,0,1,8.6,47.12c0-3.14,0-6.27,0-9.41V35a.67.67,0,0,1,0-.18l.08-.29,1.05.37c.68.24,1.35.48,2,.73l2.42.92L18,38a1.63,1.63,0,0,1,1.18,1.61c0,3.26,0,6.52,0,9.79v2.45a.53.53,0,0,1,0,.17l-.08.23Z" transform="translate(-8.45 -5.72)"/><path class="cls-1" d="M8.78,34.7l2.92,1c2.08.78,4.15,1.59,6.23,2.36A1.5,1.5,0,0,1,19,39.6c0,4.08,0,8.16,0,12.24a2,2,0,0,1-.08.25,5.69,5.69,0,0,1-.59-.16c-2.4-.84-4.79-1.67-7.17-2.53-.5-.17-1-.41-1.47-.63a1.71,1.71,0,0,1-1-1.65c0-4,0-8.08,0-12.11a1.92,1.92,0,0,1,.08-.31m-.18-.33-.06.27,0,.16a.71.71,0,0,0,0,.21v2.66c0,3.1,0,6.3,0,9.45A2,2,0,0,0,9.64,49l.2.09c.42.19.84.39,1.28.55l6.52,2.3.65.23a3,3,0,0,0,.43.11l.18,0,.23.06.07-.22,0-.11a.55.55,0,0,0,.06-.22V49.33c0-3.19,0-6.49,0-9.74A1.75,1.75,0,0,0,18,37.87L14.2,36.44l-2.41-.92-2-.72-1-.33-.26-.1Z" transform="translate(-8.45 -5.72)"/><path d="M18.86,37A1.77,1.77,0,0,1,18.5,37l-3.37-1.2-5.8-2.06a.83.83,0,0,1-.64-.91c0-2.93,0-5.87,0-8.8V20.36a2.51,2.51,0,0,1,0-.37l0-.36.39.11a3.09,3.09,0,0,1,.46.14c2.75,1,5.51,2,8.25,3,1.09.39,1.31.71,1.32,1.86,0,3.78,0,7.57.08,11.35,0,.19,0,.37,0,.57l0,.44Z" transform="translate(-8.45 -5.72)"/><path class="cls-1" d="M8.88,19.79l.7.2,8.25,3c1,.39,1.23.65,1.24,1.75,0,3.78.05,7.57.07,11.35,0,.27,0,.54-.05.86a3.41,3.41,0,0,1-.55-.1L9.38,33.59a.71.71,0,0,1-.57-.79c0-4.14,0-8.29,0-12.44a4.83,4.83,0,0,1,.06-.57m-.22-.33,0,.3,0,.22c0,.14,0,.26,0,.38v3.7q0,4.38,0,8.74a1,1,0,0,0,.73,1l5.81,2.07,3.36,1.2a2.33,2.33,0,0,0,.38.08l.21,0,.28,0V37l0-.3a5.78,5.78,0,0,0,0-.58c0-3.78,0-7.57-.07-11.35,0-1.21-.26-1.56-1.41-2L10.37,20l-.7-.26-.48-.14L9,19.55l-.29-.09Z" transform="translate(-8.45 -5.72)"/></g><g id="Top"><path class="cls-3" d="M43.91,22.1a3.13,3.13,0,0,1-1.1-.2c-1.93-.71-3.87-1.4-5.81-2.09l-2.46-.88-1.06-.4-.28-.11.59-.27A2.71,2.71,0,0,1,34.2,18l1.73-.62c2.38-.85,4.76-1.7,7.16-2.51a2.55,2.55,0,0,1,.84-.13,2.32,2.32,0,0,1,.72.1c2.36.81,4.7,1.65,7.05,2.49l2.14.77.21.09.05,0,.1.11,0,.27-1.09.4-1.93.71-2.15.76c-1.36.48-2.72,1-4.06,1.46A3.13,3.13,0,0,1,43.91,22.1Z" transform="translate(-8.45 -5.72)"/><path class="cls-1" d="M43.93,14.83a2.11,2.11,0,0,1,.68.1c3.07,1.05,6.13,2.16,9.19,3.25l.28.14,0,.17-2.92,1.07C49.11,20.3,47,21,45,21.78a3,3,0,0,1-1.05.2,3.15,3.15,0,0,1-1.06-.2c-2.75-1-5.51-2-8.27-3l-1-.41a7.7,7.7,0,0,1,.71-.32C37.2,17,40.15,16,43.13,15a2.58,2.58,0,0,1,.8-.13m0-.25a2.84,2.84,0,0,0-.88.14c-2.36.8-4.75,1.66-7.06,2.48l-1.84.65-.41.18-.32.16-.54.24.56.22.43.17.63.23,2.45.87c1.94.69,3.88,1.38,5.82,2.09a3.16,3.16,0,0,0,1.14.22A3.12,3.12,0,0,0,45.05,22l4.06-1.45,2.16-.77,2-.73.91-.34.19-.07,0-.2,0-.17,0-.13-.12-.06-.09,0-.22-.1-2.07-.74c-2.33-.84-4.74-1.7-7.12-2.51a2.24,2.24,0,0,0-.76-.12Z" transform="translate(-8.45 -5.72)"/><path d="M43.85,31a2.06,2.06,0,0,1-.68-.11c-2.35-.8-4.69-1.65-7-2.49l-2-.71c-.11,0-.22-.1-.37-.17l-.55-.27,1-.36,1.35-.5,1.59-.57c2-.7,3.93-1.4,5.91-2.06a2.91,2.91,0,0,1,.89-.14,2.07,2.07,0,0,1,.68.1c2.39.82,4.76,1.67,7.14,2.52l2.05.74a.85.85,0,0,1,.21.11l.38.21-.46.22a2.6,2.6,0,0,1-.35.16l-1.9.69c-2.33.84-4.65,1.68-7,2.48A2.64,2.64,0,0,1,43.85,31Z" transform="translate(-8.45 -5.72)"/><path class="cls-1" d="M44,23.7a1.94,1.94,0,0,1,.64.09C47.68,24.84,50.73,26,53.79,27l.37.2-.58.28c-3,1.06-5.91,2.14-8.88,3.16a2.66,2.66,0,0,1-.85.14,2.25,2.25,0,0,1-.64-.09c-3-1-6-2.13-9-3.21-.16-.06-.32-.15-.64-.3.79-.29,1.41-.54,2-.76,2.5-.89,5-1.79,7.5-2.63A2.65,2.65,0,0,1,44,23.7m0-.25a3.22,3.22,0,0,0-.93.14c-2,.67-4,1.38-5.93,2.07l-1.58.56-1.31.49-.74.27-.56.21.54.25.29.14.38.18,1.9.68c2.33.84,4.73,1.71,7.1,2.52a2.09,2.09,0,0,0,.72.11,2.83,2.83,0,0,0,.93-.15c2.35-.81,4.72-1.67,7-2.5l1.86-.67a2.92,2.92,0,0,0,.37-.17l.23-.11.44-.21L54.28,27l-.17-.1a.85.85,0,0,0-.23-.12l-2-.72c-2.35-.84-4.78-1.72-7.18-2.54a2.32,2.32,0,0,0-.72-.1Z" transform="translate(-8.45 -5.72)"/><path class="cls-3" d="M31.86,26.48a3.4,3.4,0,0,1-1.16-.22l-5.82-2.09-2.8-1-.4-.18-.58-.26,2.88-1c2.25-.78,4.42-1.53,6.59-2.31a3.46,3.46,0,0,1,1.23-.23A3.53,3.53,0,0,1,33,19.4c2,.72,3.93,1.41,5.91,2.1l2.36.83.55.21.65.25-.52.26-.36.16-2.87,1c-1.9.67-3.8,1.34-5.7,2A3.55,3.55,0,0,1,31.86,26.48Z" transform="translate(-8.45 -5.72)"/><path class="cls-1" d="M31.8,19.3a3.31,3.31,0,0,1,1.17.22c2.74,1,5.51,2,8.27,2.93l.93.35a4.86,4.86,0,0,1-.61.29c-2.86,1-5.72,2-8.57,3.05a3.31,3.31,0,0,1-1.13.21,3.21,3.21,0,0,1-1.12-.21c-2.87-1-5.75-2.06-8.62-3.09-.19-.07-.37-.17-.68-.31,3.18-1.11,6.18-2.14,9.17-3.22a3.66,3.66,0,0,1,1.19-.22m0-.25h0a3.7,3.7,0,0,0-1.27.24c-2.17.78-4.31,1.52-6.58,2.31l-2.59.9-.59.21.56.26.29.13a2.78,2.78,0,0,0,.42.18l2.89,1,5.73,2.06a3.43,3.43,0,0,0,1.2.22,3.48,3.48,0,0,0,1.21-.22c1.9-.69,3.79-1.36,5.69-2l2.88-1a2.31,2.31,0,0,0,.37-.17l.27-.13.52-.25-.54-.21-.38-.15-.56-.21-2.42-.85C37,20.69,35,20,33.05,19.29a3.55,3.55,0,0,0-1.25-.24Z" transform="translate(-8.45 -5.72)"/><path class="cls-3" d="M56,26.46a3.68,3.68,0,0,1-1.25-.23l-5.35-1.89-3.29-1.17a2.5,2.5,0,0,1-.3-.14l-.47-.25.85-.32,1.06-.39,1.56-.55c2.19-.76,4.37-1.52,6.57-2.26a2.43,2.43,0,0,1,.68-.1,2.11,2.11,0,0,1,.68.11c2.44.82,4.86,1.67,7.28,2.52l1.69.6.38.16.56.26-1.11.43c-.53.2-1,.39-1.51.56l-2.54.91c-1.39.5-2.77,1-4.15,1.5A4.06,4.06,0,0,1,56,26.46Z" transform="translate(-8.45 -5.72)"/><path class="cls-1" d="M56,19.29a2.2,2.2,0,0,1,.64.09c3,1,6,2.08,9,3.12.18.07.34.16.67.3-.88.34-1.61.62-2.34.88-2.23.81-4.47,1.59-6.7,2.41a3.59,3.59,0,0,1-2.5,0L46.1,23.05a5.46,5.46,0,0,1-.51-.25c.63-.24,1.14-.44,1.65-.62,2.71-.94,5.41-1.89,8.13-2.8a2.2,2.2,0,0,1,.64-.09M56,19h0a2.05,2.05,0,0,0-.72.11c-2.22.73-4.46,1.52-6.63,2.28l-1.5.52-1.07.39-.58.22-.53.2.5.26.22.12a1.76,1.76,0,0,0,.32.15l3.19,1.13,5.45,1.93a3.76,3.76,0,0,0,2.67,0l4.12-1.48L64,23.92l1.52-.57.81-.31.57-.21-.55-.25-.29-.14a3.58,3.58,0,0,0-.39-.17L64,21.66c-2.37-.83-4.82-1.69-7.24-2.51A2.05,2.05,0,0,0,56,19Z" transform="translate(-8.45 -5.72)"/><path class="cls-3" d="M32,17.74a2.6,2.6,0,0,1-.81-.12c-2.22-.76-4.42-1.55-6.63-2.34l-2.07-.74c-.12,0-.24-.1-.4-.17l-.63-.26,1.16-.45c.56-.22,1.08-.43,1.6-.61.92-.34,1.85-.66,2.78-1l4-1.43a3.12,3.12,0,0,1,1.11-.21,3.23,3.23,0,0,1,1,.19q4.47,1.56,8.94,3.15a.6.6,0,0,1,.22.12l.38.26-.78.29-.91.34-1.9.67c-2.06.73-4.13,1.47-6.21,2.16A2.69,2.69,0,0,1,32,17.74Z" transform="translate(-8.45 -5.72)"/><path class="cls-1" d="M32.07,10.55a3,3,0,0,1,1,.18L42,13.87a3,3,0,0,1,.36.24l-1.45.54c-2.7.95-5.39,1.93-8.11,2.84a2.78,2.78,0,0,1-.83.12,2.43,2.43,0,0,1-.77-.11c-2.91-1-5.8-2-8.69-3.08-.2-.07-.38-.15-.75-.31.94-.36,1.7-.67,2.47-.95,2.25-.81,4.51-1.59,6.76-2.41a3.11,3.11,0,0,1,1.07-.2m0-.25h0a3.43,3.43,0,0,0-1.16.21l-4,1.42c-.93.33-1.87.66-2.79,1l-1.61.61-.87.34-.58.22.58.24.33.14.42.18,2,.72c2.19.78,4.45,1.6,6.69,2.35a2.57,2.57,0,0,0,.85.13,2.94,2.94,0,0,0,.91-.14c2.09-.69,4.2-1.44,6.23-2.17L41,14.88l.94-.35.52-.19.47-.17-.42-.28-.17-.11a1,1,0,0,0-.25-.14c-3-1.05-6-2.11-8.94-3.15a3.15,3.15,0,0,0-1.08-.19Z" transform="translate(-8.45 -5.72)"/><path class="cls-3" d="M56,17.62a3.21,3.21,0,0,1-1.12-.21c-2-.7-3.93-1.38-5.9-2.06l-2.63-.92-.5-.2L45.18,14l1-.36,1.27-.47,2.28-.8c1.62-.57,3.24-1.13,4.84-1.72a4,4,0,0,1,1.36-.26,3.71,3.71,0,0,1,1.28.24c2,.73,3.94,1.43,5.91,2.13l2.53.9.36.16.56.24-.75.31c-.29.13-.55.24-.81.33l-3,1c-1.64.57-3.28,1.14-4.92,1.73A3.2,3.2,0,0,1,56,17.62Z" transform="translate(-8.45 -5.72)"/><path class="cls-1" d="M55.92,10.47a3.42,3.42,0,0,1,1.23.23c2.81,1,5.63,2,8.44,3,.18.06.34.14.65.28-.51.21-.89.38-1.28.52-2.64.93-5.29,1.84-7.92,2.78a3.13,3.13,0,0,1-2.12,0c-2.84-1-5.68-2-8.52-3-.24-.08-.47-.18-.87-.35l1.95-.72c2.38-.84,4.76-1.66,7.13-2.52a3.58,3.58,0,0,1,1.31-.25m0-.25a4,4,0,0,0-1.4.26q-2.4.87-4.8,1.71L47.4,13l-1.24.46-.72.26-.6.23.59.24.37.16.51.2,2.71.94c1.94.68,3.88,1.35,5.81,2a3.58,3.58,0,0,0,1.17.21,3.2,3.2,0,0,0,1.12-.2l4.8-1.68L65,14.77l.82-.33.48-.2.55-.22-.55-.24-.28-.12-.38-.17-2.55-.91c-1.94-.68-3.93-1.39-5.89-2.11a3.67,3.67,0,0,0-1.32-.25Z" transform="translate(-8.45 -5.72)"/><path class="cls-3" d="M67.9,22.08a1.69,1.69,0,0,1-.53-.08c-2.55-.89-5.09-1.8-7.62-2.71l-1.5-.54a1.41,1.41,0,0,1-.27-.14l-.48-.28L59,17.78l2.46-.9,1.06-.38c1.47-.53,3-1.08,4.5-1.57a3.22,3.22,0,0,1,1-.16,2.3,2.3,0,0,1,.67.1c2.48.81,5,1.66,7.42,2.52l2,.7a1.12,1.12,0,0,1,.22.11l.4.23-.47.22a4,4,0,0,1-.4.17l-1.4.48c-2.62.9-5.25,1.8-7.89,2.67A2.08,2.08,0,0,1,67.9,22.08Z" transform="translate(-8.45 -5.72)"/><path class="cls-1" d="M68,14.9a2.13,2.13,0,0,1,.63.09c3.16,1,6.31,2.13,9.46,3.22a2.32,2.32,0,0,1,.38.21c-.27.12-.45.22-.63.28-3.09,1.06-6.18,2.12-9.28,3.15a1.93,1.93,0,0,1-.63.1,1.53,1.53,0,0,1-.49-.07c-3-1.06-6.08-2.15-9.12-3.24a4.62,4.62,0,0,1-.5-.29c1.35-.49,2.52-.93,3.7-1.35,1.85-.67,3.69-1.35,5.56-1.95A2.82,2.82,0,0,1,68,14.9m0-.25a3.48,3.48,0,0,0-1,.16c-1.5.49-3,1-4.48,1.56l-1.08.39-2.46.9-1.25.46-.5.18.47.27.25.15a1.62,1.62,0,0,0,.29.15l1.5.54c2.49.9,5.07,1.82,7.62,2.71a2,2,0,0,0,.57.08,2.33,2.33,0,0,0,.7-.11c2.64-.88,5.31-1.79,7.9-2.68l1.39-.47.41-.18.25-.11.45-.21-.43-.24-.19-.11L78.14,18l-2.06-.71c-2.43-.84-4.93-1.7-7.41-2.51a2.15,2.15,0,0,0-.7-.1Z" transform="translate(-8.45 -5.72)"/><path class="cls-3" d="M43.69,13.21a2.23,2.23,0,0,1-.66-.1c-2.32-.79-4.62-1.6-6.93-2.42L34.26,10A.6.6,0,0,1,34,9.91l-.36-.21.45-.23.4-.18,1.61-.63c2.31-.9,4.62-1.79,7-2.66A2.47,2.47,0,0,1,44,5.85a2.08,2.08,0,0,1,.58.08c2.51.86,5,1.76,7.52,2.65l1.9.68a.47.47,0,0,1,.16.1l.35.26-1,.36c-.5.2-1,.38-1.43.54l-.69.24c-2.3.79-4.59,1.58-6.9,2.33A2.5,2.5,0,0,1,43.69,13.21Z" transform="translate(-8.45 -5.72)"/><path class="cls-1" d="M44,6a1.91,1.91,0,0,1,.54.08c3.15,1.08,6.28,2.21,9.42,3.33a1.63,1.63,0,0,1,.29.2c-.8.3-1.49.58-2.19.82-2.52.87-5,1.75-7.58,2.57a2.55,2.55,0,0,1-.74.11,2.06,2.06,0,0,1-.62-.09c-2.94-1-5.85-2-8.77-3.07-.1,0-.18-.11-.36-.21.26-.13.44-.23.63-.31,2.85-1.1,5.7-2.22,8.56-3.28A2.44,2.44,0,0,1,44,6m0-.25a2.76,2.76,0,0,0-.91.16c-2.3.86-4.64,1.77-6.89,2.64l-1.67.65c-.13.05-.26.12-.41.19l-.24.12-.41.21.4.23L34,10a1.12,1.12,0,0,0,.24.13l1.79.63c2.28.82,4.65,1.66,7,2.45a2.19,2.19,0,0,0,.7.1,2.69,2.69,0,0,0,.81-.12c2.28-.74,4.59-1.54,6.82-2.3l.78-.27,1.44-.54.75-.28.43-.17-.38-.27-.15-.12A.62.62,0,0,0,54,9.15l-2-.71c-2.44-.87-5-1.77-7.45-2.62a1.72,1.72,0,0,0-.62-.1Z" transform="translate(-8.45 -5.72)"/><path class="cls-3" d="M19.82,22.08a2,2,0,0,1-.61-.1c-2.46-.86-4.92-1.75-7.37-2.63l-1.74-.63a1.48,1.48,0,0,1-.22-.11l-.39-.21.44-.23c.13-.06.24-.12.35-.16l1.33-.48c2.52-.89,5-1.8,7.55-2.67a2.16,2.16,0,0,1,.71-.12,1.43,1.43,0,0,1,.48.07c2.5.86,5,1.75,7.5,2.63l1.81.65.19.09.42.22-.48.24c-.15.07-.26.13-.37.17l-1.58.56q-3.68,1.32-7.37,2.6A2,2,0,0,1,19.82,22.08Z" transform="translate(-8.45 -5.72)"/><path class="cls-1" d="M19.87,14.86a1.23,1.23,0,0,1,.44.07c3.11,1.07,6.2,2.18,9.31,3.27l.37.2c-.29.14-.45.23-.61.29-3,1.06-6,2.13-8.95,3.16a1.75,1.75,0,0,1-.62.1,1.63,1.63,0,0,1-.55-.09c-3.05-1.06-6.08-2.16-9.12-3.26a3,3,0,0,1-.38-.2c.25-.12.4-.21.56-.27,3-1.06,5.91-2.12,8.88-3.15a2.09,2.09,0,0,1,.67-.12m0-.25a2.41,2.41,0,0,0-.75.13c-2.53.88-5.09,1.8-7.57,2.68l-1.31.47-.37.17-.22.12-.43.21.43.23.17.1.24.12,1.76.63c2.41.87,4.89,1.77,7.35,2.63a1.87,1.87,0,0,0,.64.1,2.23,2.23,0,0,0,.7-.11c2.5-.86,5-1.76,7.48-2.64l1.47-.52a2.52,2.52,0,0,0,.38-.18l.26-.13.45-.22-.44-.23-.2-.1L29.7,18l-1.84-.65c-2.45-.87-5-1.77-7.47-2.63a1.67,1.67,0,0,0-.52-.08Z" transform="translate(-8.45 -5.72)"/></g><g id="Left"><path class="cls-2" d="M56.55,41.13a2.51,2.51,0,0,1,0-.37c0-1.32,0-2.65,0-4V35.57q0-3.21,0-6.42c0-1.19.26-1.56,1.37-2l4.39-1.6,3.39-1.19,1.84-.65,0,.56c0,.23,0,.42,0,.61v.57c0,2.89,0,5.78,0,8.67,0,.85,0,1.71-.09,2.57a1.48,1.48,0,0,1-1.11,1.42c-2,.67-3.93,1.36-5.89,2.05l-3.18,1.12a3.54,3.54,0,0,1-.38.09l-.35.07Z" transform="translate(-8.45 -5.72)"/><path class="cls-1" d="M67.41,23.92c0,.42.06.71.06,1q0,4.62,0,9.24c0,.85,0,1.71-.08,2.56a1.37,1.37,0,0,1-1,1.31c-3,1-6,2.11-9.07,3.17a5.13,5.13,0,0,1-.58.13c0-.24-.06-.4-.06-.57v-4c0-2.55,0-5.09,0-7.64,0-1.14.24-1.46,1.29-1.84l4.4-1.6,5.07-1.79m.23-.35-.32.11-1.62.58-3.45,1.22c-1.47.52-2.93,1.06-4.4,1.59-1.16.42-1.44.83-1.45,2.08,0,2.21,0,4.43,0,6.64v5a2.73,2.73,0,0,0,0,.38,1.5,1.5,0,0,1,0,.22l0,.28.28-.06.2,0a2.12,2.12,0,0,0,.4-.1l3.14-1.1,5.93-2.07a1.6,1.6,0,0,0,1.2-1.53c0-.83.08-1.7.08-2.57,0-2.9,0-5.79,0-8.69v-.55c0-.19,0-.39,0-.63s0-.24,0-.39l0-.33Z" transform="translate(-8.45 -5.72)"/><path class="cls-3" d="M44.4,45.38a.62.62,0,0,1,0-.18l.06-2.71c.07-3.13.14-6.27.25-9.4A1.66,1.66,0,0,1,46,31.44c1.5-.46,3-1,4.46-1.46.74-.25,1.48-.51,2.22-.75l2-.65,1.09-.33,0,.53a4.8,4.8,0,0,1,0,.65c-.08,2.78-.34,11.33-.34,11.33a1.73,1.73,0,0,1-1.47,2l-8.69,2.69-.12,0c-.13,0-.27.06-.41.09l-.31.06Z" transform="translate(-8.45 -5.72)"/><path class="cls-1" d="M55.64,28.41c0,.39.06.7,0,1q-.16,5.67-.35,11.34c0,1.13-.3,1.51-1.38,1.85-2.93.92-5.87,1.82-8.81,2.73a5.6,5.6,0,0,1-.59.12,1.09,1.09,0,0,1-.07-.25c.1-4,.18-8.08.31-12.12A1.55,1.55,0,0,1,46,31.56c2.24-.69,4.45-1.48,6.68-2.22,1-.31,1.9-.59,3-.93m.23-.33-.3.09-1,.31c-.68.21-1.33.41-2,.63l-2.25.76c-1.45.49-2.94,1-4.42,1.45a1.8,1.8,0,0,0-1.38,1.77c-.1,3.13-.17,6.32-.25,9.41l-.06,2.7a.54.54,0,0,0,0,.22l0,.11.07.23.22,0,.19,0a3.29,3.29,0,0,0,.43-.09l.37-.12c2.81-.87,5.63-1.73,8.43-2.61a1.84,1.84,0,0,0,1.56-2.08l.1-3.13c.08-2.74.17-5.47.25-8.21,0-.21,0-.43,0-.67s0-.23,0-.36l0-.32Z" transform="translate(-8.45 -5.72)"/><path class="cls-2" d="M44.54,60.43a5.29,5.29,0,0,1,0-.67q0-5.64.07-11.28a1.72,1.72,0,0,1,1.27-1.8l8.85-3.19.39-.1.41-.1,0,.44a3.8,3.8,0,0,1,0,.46V46.5q0,3.93,0,7.88c0,2.37-.41,2.93-2.65,3.73-1.94.69-3.87,1.36-5.81,2l-1.68.59a2.7,2.7,0,0,1-.43.11l-.38.1Z" transform="translate(-8.45 -5.72)"/><path class="cls-1" d="M55.36,43.44c0,.33.06.54.06.75,0,3.39,0,6.79,0,10.19,0,2.32-.38,2.84-2.57,3.61-2.49.89-5,1.75-7.49,2.62a5.81,5.81,0,0,1-.64.17,10.12,10.12,0,0,1-.08-1c0-3.76,0-7.52.07-11.28a1.6,1.6,0,0,1,1.19-1.69l8.85-3.18c.17-.06.35-.09.63-.17m.23-.31-.29.07-.25.06-.41.11-8.85,3.19a1.82,1.82,0,0,0-1.35,1.92c0,3.76-.06,7.52-.07,11.28,0,.23,0,.45,0,.68s0,.23,0,.36l0,.3.29-.08L45,61l.44-.12L47,60.29l5.88-2.06c2.28-.82,2.72-1.43,2.73-3.85,0-2.6,0-5.21,0-7.81V44.19a4.09,4.09,0,0,0,0-.47l0-.29,0-.3Z" transform="translate(-8.45 -5.72)"/><path class="cls-2" d="M44.58,72c0-2.94,0-5.88,0-8.83a1.22,1.22,0,0,1,.94-1.36c2-.67,3.94-1.38,5.91-2.08l2.71-1,.78-.26.59-.18,0,.44a3.61,3.61,0,0,1,0,.44c0,3.77,0,7.53,0,11.29a2.73,2.73,0,0,1-.13,1.06,1.83,1.83,0,0,1-.71.94c-.89.41-1.9.81-3.16,1.26s-2.81,1-4.22,1.44l-2.15.72-.58.19Z" transform="translate(-8.45 -5.72)"/><path class="cls-1" d="M55.37,58.51c0,.3,0,.51,0,.71,0,3.77,0,7.53,0,11.29a2.6,2.6,0,0,1-.12,1,1.64,1.64,0,0,1-.65.88c-1,.47-2.08.88-3.14,1.25-2,.69-3.93,1.34-5.9,2L44.7,76V75c0-3.93,0-7.86,0-11.8A1.09,1.09,0,0,1,45.54,62c2.88-1,5.74-2,8.61-3.06.37-.13.75-.23,1.22-.38m.22-.33-.3.09-.43.13-.79.26-2.66,1c-1.95.7-4,1.42-6,2.11a1.32,1.32,0,0,0-1,1.47c0,2.94,0,5.93,0,8.81v4.29l.33-.11.37-.12.51-.16,1.67-.57q2.13-.7,4.23-1.44a34.06,34.06,0,0,0,3.17-1.27,1.79,1.79,0,0,0,.78-1,2.89,2.89,0,0,0,.13-1.05v-.06c0-3.76,0-7.52,0-11.29,0-.14,0-.28,0-.45l0-.28,0-.31Z" transform="translate(-8.45 -5.72)"/><path class="cls-2" d="M56.55,56.23a2.91,2.91,0,0,1,0-.4l0-3.5c0-2.67.05-5.35.05-8a2,2,0,0,1,1.47-2.06c2-.69,3.92-1.41,5.87-2.12l2.79-1,.35-.08.33-.06,0,.37a3,3,0,0,1,0,.41v.94c0,3.6,0,7.19,0,10.79a1.58,1.58,0,0,1-1.3,1.82l-8.55,3.06c-.17.06-.35.11-.55.16l-.45.11Z" transform="translate(-8.45 -5.72)"/><path class="cls-1" d="M67.3,39.11c0,.26,0,.44,0,.63,0,3.91,0,7.82,0,11.73,0,1-.25,1.36-1.22,1.7q-4.27,1.55-8.55,3.06a8.43,8.43,0,0,1-.85.23c0-.26-.06-.44-.06-.63,0-3.84.08-7.68.08-11.53a1.85,1.85,0,0,1,1.39-1.94c2.9-1,5.78-2.09,8.66-3.14a4.42,4.42,0,0,1,.53-.11m.22-.3-.27,0-.19,0a1.82,1.82,0,0,0-.37.09l-2.87,1Q60.93,41.1,58,42.12a2.11,2.11,0,0,0-1.56,2.18c0,2.66,0,5.35,0,8,0,1.19,0,2.38,0,3.57a3.47,3.47,0,0,0,0,.42,2.32,2.32,0,0,0,0,.24l0,.29.29-.08.3-.07c.2-.05.39-.1.56-.16l8.56-3.06a1.72,1.72,0,0,0,1.38-1.94c0-3.58,0-7.15,0-10.73v-1a3.31,3.31,0,0,0,0-.42l0-.23,0-.28Z" transform="translate(-8.45 -5.72)"/><path class="cls-2" d="M56.55,71.46a.51.51,0,0,1,0-.17V69.13q0-5,0-10.09a1.6,1.6,0,0,1,1.21-1.57l3.82-1.38L64,55.2l2.23-.78L67.48,54v3.6q0,3.58,0,7.16v.42a5.35,5.35,0,0,1-.14,1.65,2.51,2.51,0,0,1-1.07,1.53c-2.29.88-4.63,1.7-6.9,2.49l-2,.71-.42.1-.3.06Z" transform="translate(-8.45 -5.72)"/><path class="cls-1" d="M67.36,54.16v1c0,3.21,0,6.42,0,9.62a7.28,7.28,0,0,1-.13,2,2.35,2.35,0,0,1-1,1.44c-2.94,1.14-5.94,2.15-8.92,3.2a4.93,4.93,0,0,1-.58.13,1.5,1.5,0,0,1-.07-.27q0-6.12,0-12.24a1.46,1.46,0,0,1,1.13-1.46c2.09-.74,4.17-1.52,6.26-2.27l3.31-1.16m.25-.35-.33.12-1.14.39c-.76.27-1.47.51-2.17.77L61.52,56l-3.81,1.38A1.7,1.7,0,0,0,56.41,59q0,5.22,0,10.42v1.83a.71.71,0,0,0,0,.21.83.83,0,0,1,0,.12l.06.24.23-.06.19,0a3.77,3.77,0,0,0,.43-.1l2-.71c2.27-.79,4.63-1.61,6.91-2.5a2.51,2.51,0,0,0,1.15-1.6,5.64,5.64,0,0,0,.15-1.69c0-.14,0-.28,0-.42,0-2.37,0-4.74,0-7.12V53.81Z" transform="translate(-8.45 -5.72)"/><path class="cls-2" d="M68.65,67.12a1.21,1.21,0,0,1,0-.25V64.52c0-3.28,0-6.56.07-9.83a1.64,1.64,0,0,1,1.19-1.6l5.42-2,3-1.12c.16-.06.32-.1.5-.15l.45-.13V62.21A1.62,1.62,0,0,1,78,64.05l-4.27,1.58L68.85,67.4l-.14,0Z" transform="translate(-8.45 -5.72)"/><path class="cls-1" d="M79.18,49.86v.74c0,3.87,0,7.74,0,11.61A1.5,1.5,0,0,1,78,63.93L73.7,65.51l-4.89,1.77c0-.2-.07-.31-.07-.41,0-4.06,0-8.12.09-12.18a1.52,1.52,0,0,1,1.11-1.49c2.82-1,5.64-2.08,8.46-3.12.22-.08.46-.13.78-.22m.25-.33-.32.09-.29.08a5.21,5.21,0,0,0-.51.15l-3,1.1-5.48,2a1.77,1.77,0,0,0-1.27,1.72c0,3.24-.06,6.49-.07,9.73l0,2.45a1.36,1.36,0,0,0,0,.27s0,.11,0,.18l.05.3.28-.11L70.43,67l3.35-1.22,4.27-1.57a1.75,1.75,0,0,0,1.36-2q0-4.24,0-8.51V49.53Z" transform="translate(-8.45 -5.72)"/><path class="cls-2" d="M68.75,52a.37.37,0,0,1,0-.17V49.17c0-3.2,0-6.4,0-9.6A1.63,1.63,0,0,1,69.9,38c1.29-.47,2.56-1,3.84-1.44l2.39-.91c.65-.24,1.31-.48,2-.71l1.07-.39.08.3a.68.68,0,0,1,0,.17v2.59c0,3.17,0,6.35,0,9.52a1.87,1.87,0,0,1-1.09,1.77L78,49c-.41.19-.83.38-1.26.53-2.14.77-4.28,1.52-6.42,2.27l-.75.26c-.13,0-.27.08-.41.12l-.3.07Z" transform="translate(-8.45 -5.72)"/><path class="cls-1" d="M79.1,34.68a2.46,2.46,0,0,1,.07.3c0,4,0,8.08,0,12.11a1.72,1.72,0,0,1-1,1.66c-.48.22-1,.45-1.46.63L69.5,51.91c-.19.06-.39.1-.59.15a.83.83,0,0,1-.08-.25c0-4.08,0-8.16,0-12.24A1.52,1.52,0,0,1,70,38.08c2.08-.76,4.15-1.57,6.22-2.35,1-.36,1.92-.69,2.93-1m.17-.33-.26.09-.94.34-2,.71-2.42.92c-1.27.48-2.53,1-3.81,1.43a1.76,1.76,0,0,0-1.26,1.73c0,3.24,0,6.54,0,9.73v2.51a.54.54,0,0,0,0,.22s0,.07,0,.11l.08.22L69,52.3l.19,0c.14,0,.29-.07.42-.12l.66-.23c2.17-.76,4.34-1.52,6.51-2.3A13.27,13.27,0,0,0,78,49.07l.21-.1a2,2,0,0,0,1.16-1.88c0-3.14,0-6.34,0-9.44V35a.56.56,0,0,0,0-.21l0-.16-.07-.26Z" transform="translate(-8.45 -5.72)"/><path class="cls-2" d="M68.64,36.63a5.59,5.59,0,0,1,0-.57q0-5.67.07-11.35c0-1.15.24-1.46,1.32-1.86l7.52-2.73.73-.27.47-.14.39-.11,0,.37a2.49,2.49,0,0,1,0,.36v3.72q0,4.36,0,8.73a.84.84,0,0,1-.65.9l-5.79,2.06-3.38,1.2A1.64,1.64,0,0,1,69,37l-.36.06Z" transform="translate(-8.45 -5.72)"/><path class="cls-1" d="M79,19.76c0,.24,0,.41,0,.57,0,4.15,0,8.3,0,12.45a.72.72,0,0,1-.57.78l-9.17,3.26a3,3,0,0,1-.55.11c0-.32,0-.59,0-.87q0-5.67.07-11.35c0-1.1.19-1.36,1.24-1.74q4.11-1.51,8.24-3c.22-.08.44-.13.71-.21m.22-.32-.29.08-.25.07-.47.14L77.5,20,70,22.73c-1.14.42-1.39.77-1.4,2,0,3.78,0,7.57-.07,11.35,0,.19,0,.38,0,.58l0,.3,0,.29.28-.06.2,0a2.45,2.45,0,0,0,.39-.08l3.36-1.2,5.8-2.06a1,1,0,0,0,.74-1q0-4.38,0-8.74V20.33a2.75,2.75,0,0,0,0-.38l0-.21,0-.3Z" transform="translate(-8.45 -5.72)"/></g></g></svg>